<?xml version="1.0" standalone="no"?><!DOCTYPE svg PUBLIC "-//W3C//DTD SVG 1.1//EN" "http://www.w3.org/Graphics/SVG/1.1/DTD/svg11.dtd"><svg t="1543904646076" class="icon" style="" viewBox="0 0 1024 1024" version="1.1" xmlns="http://www.w3.org/2000/svg" p-id="13337" id="mx_n_1543904646077" xmlns:xlink="http://www.w3.org/1999/xlink" width="32" height="32"><defs><style type="text/css"></style></defs><path d="M483.555556 113.777778C716.8 113.777778 910.222222 307.2 910.222222 540.444444c0 108.088889-39.822222 204.8-108.088889 278.755556h73.955556c56.888889-79.644444 91.022222-176.355556 91.022222-278.755556C967.111111 273.066667 750.933333 56.888889 483.555556 56.888889h-5.688889v56.888889h5.688889zM142.222222 796.444444C91.022222 722.488889 56.888889 637.155556 56.888889 540.444444S91.022222 358.4 142.222222 284.444444V199.111111C56.888889 284.444444 0 409.6 0 540.444444s51.2 250.311111 136.533333 335.644445l5.688889-11.377778V796.444444z" fill="#30A8FE" p-id="13338"></path><path d="M420.977778 876.088889V0H125.155556l73.955555 85.333333v790.755556L125.155556 1024h694.044444l73.955556-147.911111z" fill="#30A8FE" p-id="13339"></path></svg>