<?xml version="1.0" standalone="no"?><!DOCTYPE svg PUBLIC "-//W3C//DTD SVG 1.1//EN" "http://www.w3.org/Graphics/SVG/1.1/DTD/svg11.dtd"><svg t="1543905412076" class="icon" style="" viewBox="0 0 1024 1024" version="1.1" xmlns="http://www.w3.org/2000/svg" p-id="19390" data-spm-anchor-id="a313x.7781069.0.i41" xmlns:xlink="http://www.w3.org/1999/xlink" width="32" height="32"><defs><style type="text/css"></style></defs><path d="M520.822 440.579c-16.607 0-32.823 6.747-44.5 18.422-11.677 11.677-18.422 28.023-18.422 44.5 0 16.607 6.747 32.823 18.422 44.5 11.677 11.677 28.023 18.422 44.5 18.422 16.607 0 32.823-6.747 44.5-18.422 11.677-11.677 18.422-28.023 18.422-44.5 0-16.607-6.747-32.823-18.422-44.5-11.677-11.677-27.893-18.422-44.5-18.422z" p-id="19391" data-spm-anchor-id="a313x.7781069.0.i44" class="selected" fill="#e6e6e6"></path><path d="M309.738 440.579c-16.607 0-32.823 6.747-44.5 18.422s-18.422 28.023-18.422 44.5c0 16.607 6.747 32.823 18.422 44.5 11.677 11.677 28.023 18.422 44.5 18.422 16.607 0 32.823-6.747 44.5-18.422 11.677-11.677 18.422-28.023 18.422-44.5 0-16.607-6.747-32.823-18.422-44.5-11.677-11.677-27.893-18.422-44.5-18.422z" p-id="19392" data-spm-anchor-id="a313x.7781069.0.i45" class="selected" fill="#e6e6e6"></path><path d="M731.906 440.579c-16.607 0-32.823 6.747-44.5 18.422s-18.422 28.023-18.422 44.5c0 16.607 6.747 32.823 18.422 44.5 11.677 11.677 28.023 18.422 44.5 18.422 16.607 0 32.823-6.747 44.5-18.422 11.677-11.677 18.422-28.023 18.422-44.5 0-16.607-6.747-32.823-18.422-44.5-11.677-11.677-27.893-18.422-44.5-18.422z" p-id="19393" data-spm-anchor-id="a313x.7781069.0.i43" class="selected" fill="#e6e6e6"></path><path d="M652.117363 504.154888" p-id="19394"></path><path d="M967.122 320.182c-24.91-58.771-60.458-111.705-105.867-156.983s-98.212-80.957-156.983-105.867c-60.847-25.818-125.586-38.791-192.272-38.791-66.686 0-131.425 13.104-192.272 38.791-58.771 24.91-111.705 60.458-156.983 105.867-45.408 45.408-80.957 98.212-105.867 156.983-25.818 60.847-38.791 125.586-38.791 192.272 0 66.686 13.104 131.425 38.791 192.272 24.91 58.771 60.458 111.705 105.867 156.983 45.408 45.408 98.212 80.957 156.983 105.867 60.847 25.689 125.586 38.791 192.272 38.791 66.686 0 131.425-13.104 192.272-38.791 58.771-24.91 111.705-60.458 156.983-105.867s80.957-98.212 105.867-156.983c25.818-60.847 38.791-125.586 38.791-192.272 0-66.686-12.974-131.425-38.791-192.272zM512 950.71c-241.702 0-438.256-196.684-438.256-438.256 0-241.702 196.684-438.256 438.256-438.256 241.702 0 438.256 196.684 438.256 438.256 0 241.702-196.554 438.256-438.256 438.256z" p-id="19395" data-spm-anchor-id="a313x.7781069.0.i42" class="selected" fill="#e6e6e6"></path></svg>