<?xml version="1.0" standalone="no"?><!DOCTYPE svg PUBLIC "-//W3C//DTD SVG 1.1//EN" "http://www.w3.org/Graphics/SVG/1.1/DTD/svg11.dtd"><svg t="1544757105888" class="icon" style="" viewBox="0 0 1197 1024" version="1.1" xmlns="http://www.w3.org/2000/svg" p-id="4964" xmlns:xlink="http://www.w3.org/1999/xlink" width="37.40625" height="32"><defs><style type="text/css"></style></defs><path d="M1159.867052 551.677963h-65.804203v-88.237454a57.918575 57.918575 0 0 0-58.054534-57.510698h-106.86385a92.452186 92.452186 0 0 0-25.288392-84.566558L652.603663 71.742352a96.802877 96.802877 0 0 0-132.832037 0l-10.196932 10.60481-122.363187-69.882976A95.171368 95.171368 0 0 0 258.322283 46.589919L48.537397 406.881525A57.646657 57.646657 0 0 0 0 463.440509v503.048657a57.918575 57.918575 0 0 0 58.054534 57.510698h978.905495a57.646657 57.646657 0 0 0 57.782616-57.510698v-88.78129h53.295966c19.714069 0 48.945275-19.442151 48.945275-39.564097V588.25096a36.572997 36.572997 0 0 0-37.116834-36.572997zM722.894516 210.148712l128.753264 120.731678c20.529824 20.393864 32.494224 51.12062 21.889415 75.049421H525.345949z m-199.859872-84.022721l2.719182-2.9911a267.159625 267.159625 0 0 1 21.07366-19.170233c18.762355-14.955501 38.748343-23.384965 56.015148-6.254118l33.717856 31.678469-273.277784 276.540802h-106.727891zM294.487403 68.071457A64.036734 64.036734 0 0 1 380.68547 45.638206l106.320014 59.957961-286.601776 300.333644H95.171368z m758.787718 898.417709a16.858928 16.858928 0 0 1-16.994888 16.722969h-978.905494A16.994887 16.994887 0 0 1 40.787729 966.489166v-503.048657a16.994887 16.994887 0 0 1 17.266805-16.722969H1036.008315a16.994887 16.994887 0 0 1 17.266806 16.722969v88.237454h-172.668053l-4.758568 5.574323c-8.9733 10.740769-87.421699 105.776177-87.421699 156.081043S866.875199 858.945521 875.8485 870.230126l4.758568 5.574323 172.804012 2.039386zM1155.65232 832.841374a25.016474 25.016474 0 0 1-8.837341 4.62261h-93.539858l-153.361861-1.767469c-39.564097-48.945275-70.69873-101.969322-70.69873-121.139555s30.998674-72.058321 70.426811-121.003595H1155.65232z" p-id="4965"></path><path d="M934.44687 714.964838a42.419238 42.14732 0 1 0 84.838476 0 42.419238 42.14732 0 1 0-84.838476 0Z" p-id="4966"></path></svg>