<?xml version="1.0" standalone="no"?><!DOCTYPE svg PUBLIC "-//W3C//DTD SVG 1.1//EN" "http://www.w3.org/Graphics/SVG/1.1/DTD/svg11.dtd"><svg t="1543905025357" class="icon" style="" viewBox="0 0 1024 1024" version="1.1" xmlns="http://www.w3.org/2000/svg" p-id="16249" xmlns:xlink="http://www.w3.org/1999/xlink" width="32" height="32"><defs><style type="text/css"></style></defs><path d="M877.714286 0H146.285714C65.828571 0 0 65.828571 0 146.285714v731.428572c0 80.457143 65.828571 146.285714 146.285714 146.285714h731.428572c80.457143 0 146.285714-65.828571 146.285714-146.285714V146.285714c0-80.457143-65.828571-146.285714-146.285714-146.285714zM197.485714 848.457143l-58.514285-131.657143 58.514285-197.485714L424.228571 804.571429l-226.742857 43.885714z m555.885715 29.257143L212.114286 234.057143l29.257143-43.885714 146.285714 87.771428 497.371428 431.542857-131.657142 168.228572z m87.771428-490.057143L570.514286 190.171429l146.285714-43.885715 168.228571 87.771429-43.885714 153.6z" fill="#ea9518" p-id="16250" data-spm-anchor-id="a313x.7781069.0.i21" class="selected"></path></svg>