<?xml version="1.0" standalone="no"?><!DOCTYPE svg PUBLIC "-//W3C//DTD SVG 1.1//EN" "http://www.w3.org/Graphics/SVG/1.1/DTD/svg11.dtd"><svg t="1543905247540" class="icon" style="" viewBox="0 0 1024 1024" version="1.1" xmlns="http://www.w3.org/2000/svg" p-id="16758" xmlns:xlink="http://www.w3.org/1999/xlink" width="32" height="32"><defs><style type="text/css"></style></defs><path d="M959.3 671.1c0-4.2-4.2-12.6-4.2-16.7 0 0-20.9-12.6-25.1-16.7-29.3-20.9-62.8-41.8-96.2-62.8v-4.2h-4.2v-4.2c-154.8-108.8-318-209.2-477-318H340c-4.2-20.9-25.1-20.9-33.5-20.9 8.4-4.2-16.7-12.6-25.1-16.7-8.4 0-4.2 0-4.2-8.4-16.7-12.6-33.5-25.1-54.4-37.7-29.3-20.9-50.2-41.8-92-37.7-25.1 4.2-41.8 16.7-66.9 20.9 16.7 29.3 46 54.4 71.1 79.5 71.1 71.1 142.3 150.6 213.4 225.9 8.4 4.2 12.5 4.2 12.5 4.2v4.2h4.2c0 12.5 12.6 16.7 20.9 29.3 8.4 8.4 12.6 20.9 20.9 25.1 4.2 4.2 25.1 12.5 20.9 25.1 16.7 4.2 20.9 20.9 33.5 33.5 8.4 8.4 16.7 12.6 25.1 16.7 0 0 0 8.4 4.2 8.4 4.2 4.2 8.4 4.2 8.4 8.4 8.4 12.6 20.9 20.9 33.5 33.5 8.4 4.2 8.4-12.6 8.4-4.2 8.4 4.2 0 8.4 4.2 16.7 8.4 8.4 12.6 16.7 20.9 20.9 0-4.2 0-4.2 4.2-4.2 4.2 8.4 8.4 16.7 16.7 20.9 0-8.4 0-8.4 4.2-4.2 4.2 8.4-4.2 4.2-4.2 16.7 33.5 37.7 75.3 75.3 108.8 113 12.6 12.6 25.1 41.8 41.8 50.2 33.5 20.9 104.6 12.6 150.6 12.6 0-4.2 4.2-4.2 8.4-8.4 16.7-20.9 25.1-62.8 37.7-100.4 12.6-37.5 29.3-66.8 25.1-100.3zM821.3 336.4c12.6-4.2 12.6 8.4 25.1 12.6 4.2-54.4 25.1-117.1 25.1-163.2 0 4.2-8.4 0-8.4-4.2 4.2 0 8.4 0 8.4-4.2-20.9-20.9-46-46-79.5-46-25.1 0-58.6 12.6-87.9 20.9-25.1 4.2-46 12.6-66.9 16.7-8.4 0-16.7 0-20.9 8.4C687.4 227.6 750.2 282 817.1 328c0 4.2 4.2 4.2 4.2 8.4zM373.6 834.3c-16.7-12.6-33.5-37.7-54.4-54.4-54.4-50.2-113-104.6-167.4-154.8-16.7 41.8-37.7 87.9-58.6 138.1-8.4 16.7-20.9 33.5-16.7 50.2 4.2 16.7 58.6 50.2 79.5 66.9 8.4 8.4 20.9 12.6 37.7 16.7 62.8 4.2 125.5-33.5 192.5-50.2-4.2-4.2-4.2-12.5-8.4-16.7 0 0 0 4.2-4.2 4.2z" p-id="16759" data-spm-anchor-id="a313x.7781069.0.i31" class="selected" fill="#f4ea2a"></path></svg>