<?xml version="1.0" standalone="no"?><!DOCTYPE svg PUBLIC "-//W3C//DTD SVG 1.1//EN" "http://www.w3.org/Graphics/SVG/1.1/DTD/svg11.dtd"><svg t="1544757456659" class="icon" style="" viewBox="0 0 1024 1024" version="1.1" xmlns="http://www.w3.org/2000/svg" p-id="14011" xmlns:xlink="http://www.w3.org/1999/xlink" width="32" height="32"><defs><style type="text/css"></style></defs><path d="M895.4792223023408 367.6035026893432l-205.94254523859755-30.773024611239506c-7.101466720079011 0-14.202934734696296-7.101466720079011-18.937245018390122-14.202933440158022l-92.31907253918025-194.10676694028643c-11.83577829831111-26.038713033007408-37.87449133131852-42.60880290955061-66.28035950617284-42.60880290955061-28.40586817485432 0-52.07742477147655 16.57008987654321-63.91320436432592 42.60880290955061L355.7677243910321 322.6275446379457c-4.734311578232098 9.468623156464195-11.83577829831111 14.202934734696296-18.93724631292839 14.202933440158022L133.2550879813532 367.6035026893432c-26.038713033007408 4.734311578232098-49.71026962962962 23.67155659662222-56.81173634970864 49.71026962962962-9.468623156464195 28.40586817485432-2.3671551418469137 56.81173634970864 16.57008987654321 78.11613780448396l149.1308088888889 151.49796403073577c7.101466720079011 7.101466720079011 9.468623156464195 16.57008987654321 7.101466720079011 23.67155789116049l-35.50733489493334 213.04401195867652c-4.734311578232098 28.40586817485432 7.101466720079011 56.81173634970864 30.773024611239506 73.38182752079011 21.304401454775306 16.57008987654321 52.07742477147655 16.57008987654321 75.74898136809877 4.734310283693827l184.6381450783605-101.78769440110615c7.101466720079011-4.734311578232098 14.202934734696296-4.734311578232098 21.304401454775306 0l184.63814378382222 101.78769440110615c11.83577829831111 4.734311578232098 21.304401454775306 9.468623156464195 33.14017975308642 9.468623156464195 14.202934734696296 0 28.40586817485432-4.734311578232098 40.24164647316543-14.202933440158022 23.67155659662222-16.57008987654321 35.50733489493334-44.97595805139753 30.773024611239506-73.38182752079011l-11.83577829831111-75.74898136809877c-2.3671551418469137-11.83577829831111-14.202934734696296-21.304401454775306-26.038713033007408-18.93724631292839-11.83577829831111 2.3671551418469137-21.304401454775306 14.202934734696296-18.937245018390122 26.038713033007408l11.83577829831111 75.74898266263703c2.3671551418469137 11.83577829831111-2.3671551418469137 21.304401454775306-11.83577829831111 28.40586817485432-4.734311578232098 2.3671551418469137-14.202934734696296 7.101466720079011-26.038713033007408 2.3671551418469137L547.5073348949334 819.7302409342419c-21.304401454775306-11.83577829831111-47.343114487782714-11.83577829831111-68.64751464801975 0l-184.63814378382222 101.78769440110615c-11.83577829831111 7.101466720079011-21.304401454775306 0-26.038713033007408-2.3671551418469137-7.101466720079011-4.734311578232098-14.202934734696296-14.202934734696296-11.83577829831111-28.40586817485432l35.50733489493334-213.0440132532148c4.734311578232098-23.67155659662222-2.3671551418469137-49.71026962962962-21.304401454775306-66.28035950617284l-149.1308088888889-151.49796403073577c-7.101466720079011-7.101466720079011-9.468623156464195-18.937245018390122-7.101466720079011-28.40586946939259 2.3671551418469137-4.734311578232098 7.101466720079011-16.57008987654321 21.304401454775306-16.57008987654321l205.94254523859755-30.773023316701238c23.67155659662222-2.3671551418469137 42.60880290955061-18.937245018390122 54.44458120786173-40.24164647316543l92.31907253918025-194.1067682348247c4.734311578232098-9.468623156464195 11.83577829831111-14.202934734696296 21.304401454775306-14.202933440158022 4.734311578232098 0 16.57008987654321 2.3671551418469137 23.67155659662222 14.202933440158022l92.31907253918025 194.1067682348247c9.468623156464195 21.304401454775306 30.773024611239506 37.87449133131852 54.44457991332345 40.24164647316543l205.94254653313578 30.773023316701238c14.202934734696296 2.3671551418469137 18.937245018390122 11.83577829831111 18.937245018390122 16.57008987654321 2.3671551418469137 9.468623156464195 0 21.304401454775306-7.101466720079011 28.40586946939259L748.7155698498369 611.4205392592592c-16.57008987654321 16.57008987654321-23.67155659662222 42.60880290955061-21.304401454775306 66.28035950617284l7.101466720079011 42.60880290955061c2.3671551418469137 11.83577829831111 14.202934734696296 21.304401454775306 26.038713033007408 18.937245018390122 11.83577829831111-2.3671551418469137 21.304401454775306-14.202934734696296 18.937245018390122-26.038713033007408l-7.101466720079011-42.60880161501235c-2.3671551418469137-9.468623156464195 2.3671551418469137-18.937245018390122 7.101466720079011-23.67155789116049l149.1308088888889-151.49796403073577c18.937245018390122-21.304401454775306 26.038713033007408-49.71026962962962 16.57008987654321-78.11613780448396-2.3671551418469137-26.038713033007408-23.67155659662222-44.97595805139753-49.71026962962962-49.71026962962962z" fill="#707070" p-id="14012"></path></svg>