<?xml version="1.0" standalone="no"?><!DOCTYPE svg PUBLIC "-//W3C//DTD SVG 1.1//EN" "http://www.w3.org/Graphics/SVG/1.1/DTD/svg11.dtd"><svg t="1544757359954" class="icon" style="" viewBox="0 0 1024 1024" version="1.1" xmlns="http://www.w3.org/2000/svg" p-id="8284" xmlns:xlink="http://www.w3.org/1999/xlink" width="32" height="32"><defs><style type="text/css"></style></defs><path d="M692.046767 456.282202c-34.075347 0-68.150695-0.204657-102.32837 0.102328-32.540422 0.306985-62.829619-25.991406-67.229739-58.838813-0.511642-3.376836-0.716299-6.753672-0.716299-10.130509 0-47.582692 0-95.165384 0-142.850405 0-32.949735 23.535525-61.601679 55.768962-67.946038 3.888478-0.716299 7.776956-1.125612 11.767763-1.125612 68.866993 0 137.733986 0 206.600979 0.102328 32.233437 0 61.806336 25.991406 66.513441 57.815529 0.511642 3.683821 0.716299 7.265314 0.716299 10.949136 0 48.298991 0.409313 96.597981-0.102328 144.896972-0.306985 27.01469-13.81433 46.661737-37.247527 59.555111-9.823524 5.423404-20.465674 7.674628-31.824123 7.572299C759.992805 456.179874 726.019786 456.282202 692.046767 456.282202zM692.353752 408.904167C692.353752 408.904167 692.353752 408.904167 692.353752 408.904167c30.596183 0 61.090037 0.102328 91.68622 0 17.498151-0.102328 31.517138-13.609673 31.619466-31.005496 0.306985-41.340662 0.306985-82.681323 0-124.021985-0.102328-17.191166-14.530629-30.800839-31.824123-30.903168-60.88538-0.102328-121.668432-0.102328-182.553812 0-17.702808 0-31.926451 14.325972-32.02878 32.131108-0.102328 40.522035 0 81.044069 0 121.566104 0 4.604777 0.920955 9.004897 2.865194 13.098031 5.62806 12.074748 15.246927 18.930748 28.651944 19.033077C631.263715 409.108824 661.75757 408.904167 692.353752 408.904167zM330.929949 569.252723c34.280004 0 68.45768 0.204657 102.737684-0.102328 31.41481-0.204657 61.49935 24.354152 66.922754 57.303887 0.818627 4.911762 0.920955 9.823524 0.920955 14.632957 0.102328 45.536125-0.102328 91.174578 0.102328 136.710703 0.102328 19.033077-5.423404 35.712601-18.316778 49.731588-12.58639 13.712002-28.344959 22.205256-47.07105 22.307585-70.29959 0.409313-140.496852 0.306985-210.796442 0-18.009793-0.102328-33.154392-7.981613-45.638453-20.772659-13.20036-13.507345-19.851704-29.777556-19.851704-48.605976 0-47.378035-0.102328-94.653742 0-142.031778 0.102328-32.745078 22.819227-60.88538 54.848006-67.946038 3.683821-0.818627 7.469971-1.22794 11.358449-1.22794C261.142001 569.355051 296.035975 569.252723 330.929949 569.252723zM331.032277 616.630758C331.032277 616.630758 331.032277 616.630758 331.032277 616.630758c-30.596183 0-61.090037-0.102328-91.68622 0.102328-17.191166 0.102328-31.721795 12.791046-31.824123 32.540422-0.306985 40.215049-0.102328 80.430099-0.102328 120.645148 0 18.419107 14.325972 32.64275 32.745078 32.64275 60.373738 0 120.849805 0 181.223544 0 4.707105 0 9.311882-1.023284 13.507345-2.865194 13.405016-6.139702 19.237734-17.088838 19.237734-31.41481 0.102328-39.089437 0.102328-78.281203 0-117.370641 0-6.856001-1.22794-13.507345-5.116419-19.44239-6.856001-10.335165-16.577196-14.837614-28.8566-14.735285C390.48506 616.630758 360.707505 616.630758 331.032277 616.630758zM177.846707 401.945838c1.534926-0.920955 2.865194-0.511642 4.195463-0.511642 11.051464 0 22.102928 0 33.154392 0 11.256121 0 15.963226-4.707105 16.065554-15.860897 0.102328-18.623763 2.455881-36.940542 7.674628-54.745678 11.256121-38.987109 31.619466-72.448486 61.704007-99.872489 29.777556-27.117018 64.466873-44.308184 103.863296-51.982812 8.390926-1.637254 16.884181-2.558209 25.479764-3.069851 2.046567-0.102328 2.353553 0.511642 2.353553 2.148896 0 11.153792-0.102328 22.409913 0 33.563705 0 2.967523-2.046567 2.865194-3.78615 2.967523-16.986509 1.330269-33.25672 5.423404-49.117618 11.563106-19.647047 7.674628-37.04287 18.82842-52.699111 32.949735-17.907465 16.270211-31.926451 35.303288-41.749975 57.406216-7.879285 17.498151-12.58639 35.917258-14.632957 54.950335-0.511642 5.321075-0.716299 10.64215-0.716299 15.860897 0 9.107225 4.809433 13.916658 13.916658 13.916658 13.405016 0.102328 26.707705 0 40.112721 0 1.330269 0 2.660538 0 3.990806 0 0 1.637254-1.125612 2.148896-1.841911 2.865194-23.535525 23.535525-47.07105 47.07105-70.606575 70.606575-1.432597 1.432597-2.251224 2.558209-4.40012 0.409313-23.84251-24.047167-47.787349-47.889677-71.732187-71.834516C178.665334 403.07145 178.358349 402.559808 177.846707 401.945838zM847.381233 624.100729c-11.051464 0-22.205256 0-33.359049 0-16.474868 0-19.237734 3.069851-19.749375 19.544719-1.22794 46.252423-16.372539 87.695413-44.615169 124.32897-19.851704 25.786749-44.512841 45.84311-73.778755 60.27141-21.488958 10.64215-44.103528 17.805136-68.150695 20.363346-4.093135 0.409313-8.18627 0.204657-12.177076 1.22794-1.841911 0.511642-2.353553-0.511642-2.353553-2.251224 0-11.153792 0.102328-22.409913 0-33.563705 0-3.581493 2.865194-2.865194 4.604777-3.069851 9.925852-0.716299 19.647047-2.967523 29.265914-5.423404 23.637854-6.037374 44.819826-16.884181 63.648246-32.233437 28.754272-23.330868 48.605976-52.699111 58.531828-88.51404 4.093135-14.837614 6.753672-29.982212 6.651344-45.433796-0.102328-10.02818-5.01409-15.144599-14.939942-15.246927-14.325972 0-28.651944 0-42.977915 0-0.409313-1.534926 0.920955-2.046567 1.534926-2.660538 23.535525-23.535525 47.07105-47.07105 70.606575-70.606575 1.330269-1.330269 2.251224-2.660538 4.40012-0.511642 23.84251 23.944839 47.889677 47.787349 71.732187 71.732187C846.869591 622.565804 847.58589 622.872789 847.381233 624.100729z" fill="#272636" p-id="8285"></path></svg>