<?xml version="1.0" standalone="no"?><!DOCTYPE svg PUBLIC "-//W3C//DTD SVG 1.1//EN" "http://www.w3.org/Graphics/SVG/1.1/DTD/svg11.dtd"><svg t="1543904546991" class="icon" style="" viewBox="0 0 1024 1024" version="1.1" xmlns="http://www.w3.org/2000/svg" p-id="10100" data-spm-anchor-id="a313x.7781069.0.i14" xmlns:xlink="http://www.w3.org/1999/xlink" width="32" height="32"><defs><style type="text/css"></style></defs><path d="M997.376 766.976c-17.408-3.072-33.792 8.192-36.864 25.6l-1.024 7.168-416.768-481.28 32.768-39.936c11.264-13.312 9.216-33.792-4.096-45.056-13.312-11.264-33.792-9.216-45.056 4.096l-25.6 31.744-27.648-31.744c-11.264-13.312-31.744-15.36-45.056-3.072-13.312 11.264-15.36 31.744-3.072 45.056l34.816 40.96L64.512 798.72l-1.024-6.144c-3.072-17.408-19.456-28.672-36.864-25.6-17.408 3.072-28.672 19.456-25.6 36.864l25.6 143.36c3.072 15.36 16.384 26.624 31.744 26.624h6.144c17.408-3.072 28.672-19.456 25.6-36.864l-10.24-54.272c1.024-2.048 2.048-3.072 3.072-4.096l46.08-56.32V942.08c0 17.408 14.336 31.744 31.744 31.744h263.168c15.36 0 27.648-10.24 31.744-25.6L501.76 741.376l46.08 206.848c3.072 14.336 16.384 25.6 31.744 25.6h285.696c17.408 0 31.744-14.336 31.744-31.744V825.344l46.08 53.248 2.048 2.048-10.24 54.272c-3.072 17.408 8.192 33.792 25.6 36.864h6.144c15.36 0 28.672-11.264 31.744-26.624l25.6-143.36c3.072-15.36-9.216-31.744-26.624-34.816zM831.488 909.312H603.136l-71.68-324.608c-3.072-14.336-16.384-25.6-31.744-25.6s-27.648 10.24-31.744 25.6l-71.68 324.608h-204.8V744.448l308.224-374.784L829.44 751.616v157.696z" p-id="10101" fill="#1afa29"></path><path d="M82.944 608.256h57.344c17.408 0 31.744-14.336 31.744-31.744 0-17.408-14.336-31.744-31.744-31.744h-15.36l96.256-346.112 55.296 184.32c5.12 17.408 22.528 26.624 39.936 21.504 17.408-5.12 26.624-22.528 21.504-39.936L251.904 72.704c-4.096-13.312-16.384-22.528-30.72-22.528s-26.624 9.216-30.72 23.552L52.224 567.296c-3.072 9.216-1.024 20.48 5.12 27.648 6.144 8.192 16.384 13.312 25.6 13.312zM772.096 384c24.576 14.336 52.224 21.504 78.848 21.504 13.312 0 27.648-2.048 40.96-5.12 23.552-6.144 45.056-18.432 63.488-34.816 10.24-9.216 13.312-23.552 8.192-35.84-5.12-12.288-17.408-20.48-30.72-20.48-37.888 1.024-72.704-24.576-82.944-63.488s7.168-77.824 41.984-96.256c12.288-6.144 18.432-19.456 16.384-32.768-2.048-13.312-12.288-23.552-25.6-26.624-24.576-5.12-49.152-4.096-72.704 2.048-84.992 22.528-135.168 110.592-112.64 194.56 11.264 40.96 37.888 75.776 74.752 97.28z m20.48-212.992c-11.264 28.672-13.312 60.416-4.096 91.136 8.192 31.744 26.624 57.344 50.176 76.8-12.288-2.048-23.552-6.144-33.792-12.288-21.504-12.288-37.888-32.768-44.032-57.344-11.264-36.864 3.072-74.752 31.744-98.304z" p-id="10102" fill="#1afa29"></path></svg>