<?xml version="1.0" standalone="no"?><!DOCTYPE svg PUBLIC "-//W3C//DTD SVG 1.1//EN" "http://www.w3.org/Graphics/SVG/1.1/DTD/svg11.dtd"><svg t="1543972056205" class="icon" style="" viewBox="0 0 1024 1024" version="1.1" xmlns="http://www.w3.org/2000/svg" p-id="1814" data-spm-anchor-id="a313x.7781069.0.i0" xmlns:xlink="http://www.w3.org/1999/xlink" width="32" height="32"><defs><style type="text/css"></style></defs><path d="M512.001 962c-248.532 0-450.001-201.47-450.001-449.999 0-248.532 201.469-450.001 450.001-450.001 248.53 0 449.999 201.469 449.998 450.001 0 248.53-201.47 449.999-449.998 449.999zM512.001 119.128c-216.971 0-392.872 175.901-392.872 392.872 0 216.969 175.901 392.872 392.872 392.872 216.97 0 392.873-175.901 392.873-392.872 0-216.971-175.901-392.872-392.872-392.872zM485.633 541.004l-0.879-308.497h55.372v280.372l174.023 145.898-34.278 48.34-194.238-166.114z" p-id="1815" data-spm-anchor-id="a313x.7781069.0.i1" class="selected" fill="#ffffff"></path></svg>