<?xml version="1.0" standalone="no"?><!DOCTYPE svg PUBLIC "-//W3C//DTD SVG 1.1//EN" "http://www.w3.org/Graphics/SVG/1.1/DTD/svg11.dtd"><svg t="1544757220567" class="icon" style="" viewBox="0 0 1024 1024" version="1.1" xmlns="http://www.w3.org/2000/svg" p-id="5754" xmlns:xlink="http://www.w3.org/1999/xlink" width="32" height="32"><defs><style type="text/css"></style></defs><path d="M281.155129 309.047751H757.634844c75.180942 0 136.137387 60.955307 136.137387 136.137387v385.721458c0 75.18208-60.956444 136.137387-136.137387 136.137386H281.155129c-75.180942 0-136.137387-60.955307-136.137387-136.137386V445.185138c0.001138-75.18208 60.956444-136.137387 136.137387-136.137387z" fill="#E33A13" p-id="5755"></path><path d="M417.292516 558.63296H621.499733v408.411022H417.292516V558.63296zM540.649244 218.289493S681.040782 45.28128 722.16576 59.462542c0 0 75.159324-43.961458 113.447822 226.895645v22.689564h-113.447822s19.143111-163.081102-45.380267-136.137387l-90.758257 90.758258-45.379129 45.379129v-90.758258zM489.969209 219.307804S349.577671 48.239502 308.452693 62.264889c0 0-75.159324-43.461973-113.447822 224.34816v22.434702h113.447822s-19.144249-161.252693 45.380267-134.609351l90.758258 89.739947 45.379129 44.869404v-89.739947z" fill="#FFB400" p-id="5756"></path><path d="M201.742791 309.047751h635.306667c68.910649 0 124.793742 55.870578 124.793742 124.792605s-55.881956 124.792604-124.793742 124.792604H201.742791c-68.910649 0-124.792604-55.870578-124.792604-124.792604-0.001138-68.922027 55.881956-124.792604 124.792604-124.792605z" fill="#FF5831" p-id="5757"></path><path d="M519.395556 218.289493c56.39168 0 102.104178 45.71136 102.104177 102.10304v68.068694c0 56.39168-45.712498 102.10304-102.104177 102.10304-56.39168 0-102.10304-45.71136-102.10304-102.10304v-68.068694c0-56.39168 45.712498-102.10304 102.10304-102.10304z" fill="#FFC937" p-id="5758"></path><path d="M417.292516 309.047751H621.499733v249.585209H417.292516V309.047751z" fill="#FFC937" p-id="5759"></path></svg>