<?xml version="1.0" standalone="no"?><!DOCTYPE svg PUBLIC "-//W3C//DTD SVG 1.1//EN" "http://www.w3.org/Graphics/SVG/1.1/DTD/svg11.dtd"><svg t="1543904326162" class="icon" style="" viewBox="0 0 1024 1024" version="1.1" xmlns="http://www.w3.org/2000/svg" p-id="4724" data-spm-anchor-id="a313x.7781069.0.i5" xmlns:xlink="http://www.w3.org/1999/xlink" width="32" height="32"><defs><style type="text/css"></style></defs><path d="M957.242062 505.637082l-167.915337-101.833293c0 0-7.643074-29.698392-38.167275-66.191538l30.524201-112.011096-114.486474 35.637662c0 0-38.168298-29.697369-58.512648-33.093722L511.999488 62.671365l-101.769848 173.113733c0 0-20.352537 9.334599-61.063751 25.454742l-106.850563-45.822628 33.06814 119.652124c0 0-27.986401 39.882336-33.06814 71.28044L66.755892 505.637082l170.468486 99.283214c0 0 14.408151 44.972261 30.524201 66.195631l-38.160111 109.458971 117.030413-28.002774c0 0 55.129598 39.037085 76.335572 45.827745l86.498026 162.92979 96.679923-162.92979c0 0 58.519812-25.459858 76.333526-38.183647l114.489544 30.53955-35.618219-117.105115c0 0 30.525224-49.207725 40.705074-73.828472L957.242062 505.637082zM636.664789 653.293003c0 0-47.701418 39.458687-109.404736 43.271526 0 0-107.48706 14.002922-145.017838-35.638685l83.962274-30.546713c0 0 127.84983-42.004673 129.756249-86.559425 0 0 38.797631-71.91489-15.261589-134.925992l-5.089925-12.729929-10.17985 2.549056c0 0-55.974849-19.095917-104.313787 30.547737 0 0-27.349905 47.096644 7.633864 78.919421 0 0 19.084661 10.819416 17.807574-10.18292l-5.090948-28.002774c0 0 77.597309-36.915771 78.872349 81.464383 0 0-62.96403 62.372559-129.757273 22.913872 0 0-84.599793-75.102489-68.691475-134.927015l-2.544963-30.55183L415.312402 360.527147l73.789587-43.277666 25.441439 5.090948 22.895453-10.184967 12.719696 15.274892 71.243601 17.822924c0 0 62.963007 64.914452 63.602573 91.64935C685.005774 436.900581 730.79975 577.547879 636.664789 653.293003z" p-id="4725" data-spm-anchor-id="a313x.7781069.0.i6" class="" fill="#f4ea2a"></path></svg>