<?xml version="1.0" standalone="no"?><!DOCTYPE svg PUBLIC "-//W3C//DTD SVG 1.1//EN" "http://www.w3.org/Graphics/SVG/1.1/DTD/svg11.dtd"><svg t="1543904445924" class="icon" style="" viewBox="0 0 1261 1024" version="1.1" xmlns="http://www.w3.org/2000/svg" p-id="6591" id="mx_n_1543904445925" xmlns:xlink="http://www.w3.org/1999/xlink" width="39.40625" height="32"><defs><style type="text/css"></style></defs><path d="M1196.500578 284.507942c-61.581806-121.685648-166.517202-206.66854-312.096591-252.73173-211.10243-67.001005-364.071635-13.794324-455.212707 42.614609a607.935585 607.935585 0 0 0-187.947671 189.425634c-10.345743 17.489233-24.632722 42.368282-38.18072 71.434895H160.694607c-72.420203 0-89.416782 33.993157-93.604345 49.265445l-40.151337 111.586231a45.570536 45.570536 0 0 0 4.43389 39.658683 44.3389 44.3389 0 0 0 33.993157 20.198832l33.500502 3.202254c-4.926544 11.577379-9.606762 22.662104-13.794324 33.007848-41.382973 101.733143-82.026965 238.937406-83.751256 244.602932a34.978466 34.978466 0 0 0 62.320787 29.559267 55.177298 55.177298 0 0 1 59.857515-14.779633 4161.205772 4161.205772 0 0 1 453.24209 147.796333 277.61078 277.61078 0 0 0 108.383978 24.632722 150.75226 150.75226 0 0 0 138.435899-85.9682 586.012463 586.012463 0 0 0 27.095995-64.78406 347.321384 347.321384 0 0 0 344.858111 19.706178 36.210102 36.210102 0 0 0 18.474542-20.445159c5.419199-14.779633 111.093577-335.005023-17.489233-587.983081zM500.13352 572.710793a1486.338461 1486.338461 0 0 0-299.533903-71.927549l-35.963774-5.172872-35.963775-4.680217-24.632722-2.463273 29.066612-80.795329a69.956931 69.956931 0 0 1 27.834976-3.941235H207.496779c13.547997 0 24.632722 1.724291 37.195411 2.955927 102.718452 10.099416 218.245919 37.441738 272.684235 73.898166l10.345744 7.14349z" p-id="6592" data-spm-anchor-id="a313x.7781069.0.i12" class="" fill="#bfbfbf"></path></svg>