<?xml version="1.0" standalone="no"?><!DOCTYPE svg PUBLIC "-//W3C//DTD SVG 1.1//EN" "http://www.w3.org/Graphics/SVG/1.1/DTD/svg11.dtd"><svg t="1543972642982" class="icon" style="" viewBox="0 0 1024 1024" version="1.1" xmlns="http://www.w3.org/2000/svg" p-id="9342" xmlns:xlink="http://www.w3.org/1999/xlink" width="32" height="32"><defs><style type="text/css"></style></defs><path d="M347.52 656.384c0 7.936 3.2 15.744 8.832 21.376 5.632 5.632 13.44 8.832 21.376 8.832 7.936 0 15.744-3.2 21.376-8.832 5.632-5.632 8.832-13.44 8.832-21.376 0-7.936-3.2-15.744-8.832-21.376-5.632-5.632-13.44-8.832-21.376-8.832-7.936 0-15.744 3.2-21.376 8.832C350.848 640.64 347.52 648.448 347.52 656.384L347.52 656.384zM347.52 656.384" fill="#13227a" p-id="9343"></path><path d="M600.064 656.384c0 7.936 3.2 15.744 8.832 21.376 5.632 5.632 13.44 8.832 21.376 8.832 7.936 0 15.744-3.2 21.376-8.832 5.632-5.632 8.832-13.44 8.832-21.376 0-7.936-3.2-15.744-8.832-21.376-5.632-5.632-13.44-8.832-21.376-8.832-7.936 0-15.744 3.2-21.376 8.832C603.264 640.64 600.064 648.448 600.064 656.384L600.064 656.384zM600.064 656.384" fill="#13227a" p-id="9344"></path><path d="M870.656 446.464c0 0-8.96-76.416-49.92-120.704 0 0 28.8-15.488-2.176-42.112 0 0-27.648-6.656-33.28-4.48 0 0-14.336-48.768-43.136-60.928 0 0-24.448-5.888-29.952 17.792 0 0-64.768-32.896-111.616-41.216 0 0-119.552-23.04-151.68-78.592 0 0-6.912-14.08-29.568-5.76 0 0-21.632 17.152-14.976 85.888 0 0 1.792 14.08-90.496-45.056 0 0-22.912-5.888-29.568 11.776 0 0-11.776 42.112 2.944 73.088 0 0-53.12 9.6-76.032 32.512 0 0-25.856 33.28 17.664 38.4 0 0-64.896 36.864-76.032 141.056 0 0-1.28 73.088 22.144 154.112-4.992 13.184-7.04 27.776-5.376 42.496 4.608 42.368 37.248 75.904 79.616 81.792 13.312 40.576 36.096 77.824 67.2 108.928 52.224 52.224 121.728 81.024 195.712 81.024 73.856 0 143.36-28.8 195.712-81.024 31.744-31.744 54.912-69.888 68.096-111.616 40.832-5.248 73.344-36.352 80-77.184 3.2-19.712-0.128-39.296-8.704-56.192C861.568 547.584 874.24 494.72 870.656 446.464L870.656 446.464zM243.2 712.32c-32.768-7.808-57.344-35.2-61.056-69.12-0.64-6.016-0.64-12.032 0.128-17.92 5.888 17.024 12.928 34.176 21.504 50.816 0 0 17.536 17.536 35.584 11.008 0.768 4.48 1.664 8.832 2.56 13.184L243.2 712.32 243.2 712.32zM512 903.68c-125.696 0-231.04-88.32-257.536-206.08l-2.176-19.968c2.048-2.432 4.096-5.376 6.016-8.832 0 0 2.304-82.048 51.072-130.688 0 0 42.88 11.904 97.536-18.432 0 0-22.912 28.032-43.648 42.88 0 0-11.776 28.8 14.72 31.744 0 0 81.92 15.488 163.968-38.4 0 0-4.48 27.264 34.688 19.2 0 0 31.744-0.768 82.688-39.936 0 0 11.136 18.432 52.736-4.48 0 0-1.024 36.48 32.128 93.056 0 0 14.464 23.552 14.464 64.896 0 0 3.84 3.072 9.472 5.888l-3.456 21.248C732.032 824.32 631.168 903.68 512 903.68L512 903.68zM843.136 644.608c-5.376 33.28-30.848 59.136-63.36 65.664 1.024-3.84 1.92-7.808 2.816-11.776 9.984 0.512 20.992-4.096 28.288-22.656 0 0 14.848-27.52 29.824-67.328C844.16 619.776 845.056 632.192 843.136 644.608L843.136 644.608zM843.136 644.608" fill="#13227a" p-id="9345"></path></svg>