<?xml version="1.0" standalone="no"?><!DOCTYPE svg PUBLIC "-//W3C//DTD SVG 1.1//EN" "http://www.w3.org/Graphics/SVG/1.1/DTD/svg11.dtd"><svg t="1543904049776" class="icon" style="" viewBox="0 0 1269 1024" version="1.1" xmlns="http://www.w3.org/2000/svg" p-id="1503" xmlns:xlink="http://www.w3.org/1999/xlink" width="39.65625" height="32"><defs><style type="text/css"></style></defs><path d="M615.68 805.12h-1.1264a32 32 0 0 1-29.1456-21.5808L492.6336 513.28l-47.9232 97.28A32 32 0 0 1 416 628.48H277.76a32 32 0 0 1 0-64h118.3232l73.1264-148.48a32 32 0 0 1 58.9824 3.7376l90.6368 264.064L693.76 507.1872a32 32 0 0 1 53.5296-8.576c0.5632 0.6272 64 70.9888 151.2832 70.9888a32 32 0 0 1 0 64c-71.4624 0-128.8832-33.28-163.456-60.0576L645.12 785.6128A32 32 0 0 1 615.68 805.12z" fill="#FF6A5F" p-id="1504"></path><path d="M638.72 1024a32 32 0 0 1-15.5008-4.0064C515.84 960.512 431.8592 899.5584 366.5536 833.6128 260.6592 726.6944 206.976 609.472 206.976 485.2096 206.976 344.704 321.28 230.4 461.7856 230.4a252.16 252.16 0 0 1 114.6624 27.2128 256.5632 256.5632 0 0 1 62.272 44.288 256.5632 256.5632 0 0 1 62.272-44.288A252.16 252.16 0 0 1 815.6544 230.4C956.16 230.4 1070.464 344.704 1070.464 485.2096c0 266.3808-263.552 436.3136-390.208 517.9648-8.6144 5.5552-16.7424 10.8032-23.9744 15.5392A32 32 0 0 1 638.72 1024zM461.7856 294.4c-105.216 0-190.8096 85.5936-190.8096 190.8096 0 106.7904 47.4496 208.8576 141.0432 303.36 57.6 58.1504 131.4816 112.5632 225.4848 166.016l8.064-5.2096c60.8128-39.2064 152.7296-98.4576 228.5184-177.4208 40.8576-42.5472 72.6272-86.4384 94.464-130.4576 25.1648-50.7392 37.9136-103.3216 37.9136-156.3008 0-105.216-85.5936-190.8096-190.8096-190.8096a189.5936 189.5936 0 0 0-151.5392 74.8672 32 32 0 0 1-50.7904 0A189.5936 189.5936 0 0 0 461.7856 294.4z" fill="#743BEE" p-id="1505"></path><path d="M62.72 463.36m-62.72 0a62.72 62.72 0 1 0 125.44 0 62.72 62.72 0 1 0-125.44 0Z" fill="#B491FF" p-id="1506"></path><path d="M779.52 99.84m-58.88 0a58.88 58.88 0 1 0 117.76 0 58.88 58.88 0 1 0-117.76 0Z" fill="#B491FF" p-id="1507"></path><path d="M321.28 39.68m-39.68 0a39.68 39.68 0 1 0 79.36 0 39.68 39.68 0 1 0-79.36 0Z" fill="#743BEE" p-id="1508"></path><path d="M1212.16 220.16m-57.6 0a57.6 57.6 0 1 0 115.2 0 57.6 57.6 0 1 0-115.2 0Z" fill="#FF6A5F" p-id="1509"></path></svg>