<?xml version="1.0" standalone="no"?><!DOCTYPE svg PUBLIC "-//W3C//DTD SVG 1.1//EN" "http://www.w3.org/Graphics/SVG/1.1/DTD/svg11.dtd"><svg t="1543904225952" class="icon" style="" viewBox="0 0 1250 1024" version="1.1" xmlns="http://www.w3.org/2000/svg" p-id="4544" xmlns:xlink="http://www.w3.org/1999/xlink" width="39.0625" height="32"><defs><style type="text/css"></style></defs><path d="M1090.978206 1023.999847a137.934799 137.934799 0 0 1-22.321805-1.799696c-66.965412-10.993489-122.183975-84.87866-180.695004-163.102633-48.61968-65.012255-98.85769-132.200885-150.57452-156.447944-46.819984-21.973026-94.184062-23.716917-107.577145-23.716917h-9.165891c-9.612327 0-59.989849 1.143992-108.051483 23.716917-51.688928 24.191255-101.912987 91.379886-150.490813 156.336335-58.594736 78.279777-113.799348 152.192851-180.736858 163.228193a137.851092 137.851092 0 0 1-22.321805 1.785745 155.582975 155.582975 0 0 1-90.9474-29.827511c-32.29686-23.549503-52.609702-57.771619-58.76215-99.053006C-9.458837 769.266208 0.404611 620.57509 36.412471 487.160457c36.272932-134.279603 95.14669-238.564282 161.609862-285.998116 45.578334-32.575883 98.592619-49.791574 153.281039-49.791574 60.296773 0 119.77043 21.638199 167.413531 60.924574 1.995011 1.618331 4.073729 3.166906 6.222203 4.617823a103.098833 103.098833 0 0 1 32.924661-33.482706V34.292904a34.263969 34.263969 0 0 1 66.43527-11.816605A33.998898 33.998898 0 0 1 656.26107 0.600931a34.473236 34.473236 0 0 1 34.263969 33.482706v148.384193a103.05698 103.05698 0 0 1 34.431383 34.431383q3.236662-2.204278 6.278008-4.659677c47.712856-39.258473 107.228367-60.882721 167.483286-60.88272 54.702371 0 107.702705 17.215691 153.281039 49.777623 66.463172 47.433834 125.364833 151.746415 161.609862 285.998116 35.993909 133.414633 45.871308 282.105751 27.09309 407.958873-6.152447 41.225582-26.507142 75.447698-58.776101 99.053005a155.429513 155.429513 0 0 1-90.9474 29.855414zM629.642318 610.404718c17.020376 0 77.20554 2.176376 136.874513 30.162338 67.244435 31.543499 122.769923 105.707694 176.342253 177.444392 45.564383 60.896672 97.211457 130.010558 136.95822 136.511783a66.588732 66.588732 0 0 0 10.812123 0.851019 89.566239 89.566239 0 0 0 50.96347-16.643695c17.383105-12.681575 27.902255-30.692481 31.362134-53.725793 18.136466-121.639881 8.733406-258.277225-26.507142-384.744196-32.185251-115.347923-82.311653-206.323226-134.195896-243.36347-34.291872-24.49818-71.959916-36.914684-111.957799-36.914684a200.575361 200.575361 0 0 0-125.378784 45.201654c-15.09512 12.430455-33.845436 22.572924-55.80451 30.120484a33.678022 33.678022 0 0 1-8.370677 2.790226c-36.789123 11.160902-71.959916 12.388601-85.422754 12.388601h-0.585948c-13.462838 0-48.647582-1.213748-85.408803-12.388601a33.789631 33.789631 0 0 1-8.370676-2.790226c-21.875368-7.533609-40.625684-17.662128-55.804511-30.120484a200.575361 200.575361 0 0 0-125.378783-45.187703c-40.011834 0-77.679878 12.416504-111.957799 36.914684-51.84239 37.040244-101.996694 128.029498-134.181945 243.36347-35.296353 126.466972-44.727315 263.104315-26.507143 384.744196 3.431977 22.977507 13.951128 41.058169 31.362135 53.725793a89.677848 89.677848 0 0 0 50.991371 16.643695 66.742194 66.742194 0 0 0 10.770271-0.851019c39.690958-6.515177 91.351983-75.587209 136.930317-136.525734 53.628134-71.722747 109.083867-145.886941 176.328302-177.444392 59.655022-27.972011 119.979697-30.148387 137.055877-30.148387H625.010544c1.018432 0 2.580959-0.013951 4.631774-0.013951z m-33.175781-370.332682a255.12427 255.12427 0 0 0 28.33474 1.813647h0.48829a254.356958 254.356958 0 0 0 28.264984-1.813647c-6.501225-3.850511-15.681067-6.836053-28.544007-6.836053s-22.042782 2.985541-28.544007 6.836053zM394.57977 616.626921a15.150925 15.150925 0 0 0 15.136973-15.123022V525.707422H485.499268a15.150925 15.150925 0 0 0 15.192778-15.109071v-94.365427A15.123022 15.123022 0 0 0 485.499268 401.109902h-75.782525v-75.852281a15.150925 15.150925 0 0 0-15.136973-15.136973h-94.337525a15.150925 15.150925 0 0 0-15.136974 15.136973v75.83833H209.266942a15.150925 15.150925 0 0 0-15.136974 15.123022v94.379378A15.123022 15.123022 0 0 0 209.266942 525.707422h75.838329v75.852281a15.150925 15.150925 0 0 0 15.136974 15.067218z" fill="" p-id="4545"></path><path d="M900.921994 416.497996a63.449728 63.449728 0 1 1 63.46368-63.449729 63.519484 63.519484 0 0 1-63.46368 63.449729z" fill="#7E52F3" p-id="4546"></path><path d="M900.921994 637.218785a63.449728 63.449728 0 1 1 63.46368-63.449728 63.519484 63.519484 0 0 1-63.46368 63.449728z m-110.339468-110.36737a63.449728 63.449728 0 1 0-63.47763-63.449729 63.003292 63.003292 0 0 0 63.47763 63.449729z m284.156567-63.449729a63.449728 63.449728 0 1 0-63.449728 63.449729 63.519484 63.519484 0 0 0 63.435777-63.449729z" fill="#A6BAFB" p-id="4547"></path></svg>