<?xml version="1.0" standalone="no"?><!DOCTYPE svg PUBLIC "-//W3C//DTD SVG 1.1//EN" "http://www.w3.org/Graphics/SVG/1.1/DTD/svg11.dtd"><svg t="1541052006803" class="icon" style="" viewBox="0 0 1024 1024" version="1.1" xmlns="http://www.w3.org/2000/svg" p-id="34957" xmlns:xlink="http://www.w3.org/1999/xlink" width="32" height="32"><defs><style type="text/css"></style></defs><path d="M512.03499609 512.03499609m-427.44260196 0a427.44260197 427.44260197 0 1 0 854.88520393 0 427.44260197 427.44260197 0 1 0-854.88520393 0Z" fill="#ffcd00" p-id="34958"></path><path d="M774.99583731 566.90891178c7.48916987 0 13.57849406 6.85923922 12.31863372 14.27841594-22.18753991 131.44542403-136.48486541 231.46433359-274.15959897 231.46433359s-252.04205222-100.08890175-274.15959897-231.46433359c-1.25986034-7.41917769 4.82946481-14.27841691 12.31863372-14.27841594h523.6819305z" fill="#FFFFFF" p-id="34959"></path><path d="M289.94962241 396.47781025a63.13299963 55.08389225 90 1 0 110.16778353 0 63.13299963 55.08389225 90 1 0-110.16778353 0Z" fill="#FFFFFF" p-id="34960"></path><path d="M618.84315269 396.47781025a63.13299963 55.08389225 90 1 0 110.16778353 0 63.13299963 55.08389225 90 1 0-110.16778353 0Z" fill="#FFFFFF" p-id="34961"></path></svg>