<?xml version="1.0" standalone="no"?><!DOCTYPE svg PUBLIC "-//W3C//DTD SVG 1.1//EN" "http://www.w3.org/Graphics/SVG/1.1/DTD/svg11.dtd"><svg t="1541053269755" class="icon" style="" viewBox="0 0 1024 1024" version="1.1" xmlns="http://www.w3.org/2000/svg" p-id="36555" xmlns:xlink="http://www.w3.org/1999/xlink" width="32" height="32"><defs><style type="text/css"></style></defs><path d="M427.2 246c6.6 0 12.8 2.6 17.6 7.4 4.7 4.7 7.4 11 7.4 17.6v155.9c0 6.6-2.6 12.8-7.4 17.6-4.7 4.7-11 7.4-17.6 7.4H271.3c-6.6 0-12.8-2.6-17.6-7.4-4.7-4.7-7.4-11-7.4-17.6v-156c0-6.6 2.6-12.8 7.4-17.6 4.7-4.7 11-7.4 17.6-7.4h155.9m0-39.9H271.3c-35.7 0-64.9 29.2-64.9 64.9v155.9c0 35.7 29.2 64.9 64.9 64.9h155.9c35.7 0 64.9-29.2 64.9-64.9V270.9c0-35.7-29.2-64.9-64.9-64.9z" p-id="36556"></path><path d="M349.3 348.9m-58.2 0a58.2 58.2 0 1 0 116.4 0 58.2 58.2 0 1 0-116.4 0Z" p-id="36557"></path><path d="M427.2 572c6.6 0 12.8 2.6 17.6 7.4 4.7 4.7 7.4 11 7.4 17.6v155.9c0 6.6-2.6 12.8-7.4 17.6-4.7 4.7-11 7.4-17.6 7.4H271.3c-6.6 0-12.8-2.6-17.6-7.4-4.7-4.7-7.4-11-7.4-17.6v-156c0-6.6 2.6-12.8 7.4-17.6s11-7.4 17.6-7.4h155.9m0-39.9H271.3c-35.7 0-64.9 29.2-64.9 64.9v155.9c0 35.7 29.2 64.9 64.9 64.9h155.9c35.7 0 64.9-29.2 64.9-64.9V596.9c0-35.7-29.2-64.9-64.9-64.9z" p-id="36558"></path><path d="M349.3 674.9m-58.2 0a58.2 58.2 0 1 0 116.4 0 58.2 58.2 0 1 0-116.4 0Z" p-id="36559"></path><path d="M753.8 246c6.6 0 12.8 2.6 17.6 7.4 4.7 4.7 7.4 11 7.4 17.6v155.9c0 6.6-2.6 12.8-7.4 17.6-4.7 4.7-11 7.4-17.6 7.4H597.9c-6.6 0-12.8-2.6-17.6-7.4-4.7-4.7-7.4-11-7.4-17.6v-156c0-6.6 2.6-12.8 7.4-17.6 4.7-4.7 11-7.4 17.6-7.4h155.9m0-39.9H597.9c-35.7 0-64.9 29.2-64.9 64.9v155.9c0 35.7 29.2 64.9 64.9 64.9h155.9c35.7 0 64.9-29.2 64.9-64.9V270.9c0-35.7-29.2-64.9-64.9-64.9z" p-id="36560"></path><path d="M675.9 348.9m-58.2 0a58.2 58.2 0 1 0 116.4 0 58.2 58.2 0 1 0-116.4 0Z" p-id="36561"></path><path d="M573 631.2c-11 0-20-9-20-20V552c0-11 9-20 20-20s20 9 20 20v59.2c0 11.1-9 20-20 20zM573 817.8c-11 0-20-9-20-20V680.9c0-11 9-20 20-20s20 9 20 20v116.8c0 11.1-9 20.1-20 20.1zM675.9 817.8c-11 0-20-9-20-20v-59.2c0-11 9-20 20-20s20 9 20 20v59.2c0 11-9 20-20 20zM675.9 688.8c-11 0-20-9-20-20V552c0-11 9-20 20-20s20 9 20 20v116.8c0 11.1-9 20-20 20zM778.7 660.9c-11 0-20-9-20-20V552c0-11 9-20 20-20s20 9 20 20v88.9c0 11.1-8.9 20-20 20zM778.7 817.8c-11 0-20-9-20-20v-88.9c0-11 9-20 20-20s20 9 20 20v88.9c0 11-8.9 20-20 20z" p-id="36562"></path></svg>