<?xml version="1.0" standalone="no"?><!DOCTYPE svg PUBLIC "-//W3C//DTD SVG 1.1//EN" "http://www.w3.org/Graphics/SVG/1.1/DTD/svg11.dtd"><svg t="1541051650033" class="icon" style="" viewBox="0 0 1024 1024" version="1.1" xmlns="http://www.w3.org/2000/svg" p-id="16931" xmlns:xlink="http://www.w3.org/1999/xlink" width="32" height="32"><defs><style type="text/css"></style></defs><path d="M0 0h1024v1024H0z" fill="#5D93E1" p-id="16932"></path><path d="M651.117477 617.159952c-0.722501-0.21675-2.023001-0.50575-3.395753-0.794751-6.141254-1.661751-12.282509-3.323502-17.845763-5.274253h-0.07225c-35.258026-12.354759-57.149792-32.729274-57.149792-53.176039 0-8.308756 3.395752-16.111762 10.765258-24.492768 2.890002-2.745502 5.635504-5.563254 8.381006-8.597757 24.131518-27.52727 38.003528-66.759049 38.003528-107.652578 0-80.414309-52.309038-145.872857-116.539335-145.872857S396.652791 336.612997 396.652791 417.027305c0 45.734283 16.473012 87.639314 45.228533 115.166585 0.07225 0.07225 0.07225 0.07225 0.07225 0.1445 5.924504 5.780004 13.00501 15.028011 13.005009 26.371269 0 19.724264-22.036266 39.304029-57.511042 51.225288-0.1445 0-0.36125 0.07225-0.50575 0.1445-5.129754 1.300501-9.609257 2.601002-16.328512 4.768503-78.969308 25.432019-126.220842 71.310802-126.509843 122.75284-0.07225 8.308756 6.430255 15.244761 14.811261 15.244761h486.387356c8.236506 0 14.811261-6.863755 14.811261-15.172511-0.36125-49.274536-44.578283-94.286319-118.995837-120.513088z" fill="#FFFFFF" p-id="16933"></path><path d="M510.302124 722.572779l-40.60453-52.525788L510.302124 558.492909l44.000282 111.554082z" fill="#5D93E1" p-id="16934"></path></svg>