<?xml version="1.0" standalone="no"?><!DOCTYPE svg PUBLIC "-//W3C//DTD SVG 1.1//EN" "http://www.w3.org/Graphics/SVG/1.1/DTD/svg11.dtd"><svg t="1541051706839" class="icon" style="" viewBox="0 0 1024 1024" version="1.1" xmlns="http://www.w3.org/2000/svg" p-id="18335" xmlns:xlink="http://www.w3.org/1999/xlink" width="32" height="32"><defs><style type="text/css"></style></defs><path d="M524.8 317.44l-256-256c-102.4 56.32-184.32 145.92-230.4 256h486.4z" fill="#F37520" p-id="18336"></path><path d="M706.56 522.24l256-256c-56.32-102.4-145.92-184.32-256-227.84v483.84z" fill="#6167AF" p-id="18337"></path><path d="M501.76 704l256 256c102.4-56.32 184.32-145.92 227.84-256H501.76z" fill="#42AAE0" p-id="18338"></path><path d="M1003.52 655.36c12.8-46.08 20.48-94.72 20.48-143.36 0-71.68-15.36-138.24-40.96-199.68L642.56 655.36h360.96z" fill="#5C7CBD" p-id="18339"></path><path d="M657.92 381.44V20.48C611.84 7.68 563.2 0 512 0c-69.12 0-135.68 15.36-197.12 38.4l343.04 343.04z" fill="#EF5654" p-id="18340"></path><path d="M20.48 366.08C7.68 412.16 0 460.8 0 512c0 71.68 15.36 138.24 40.96 199.68L384 366.08H20.48z" fill="#FFC817" p-id="18341"></path><path d="M368.64 640v363.52c46.08 12.8 94.72 20.48 143.36 20.48 71.68 0 138.24-15.36 199.68-40.96L368.64 640z" fill="#71BE44" p-id="18342"></path><path d="M320 499.2l-256 256c56.32 102.4 148.48 184.32 256 230.4v-486.4z" fill="#9BCA3B" p-id="18343"></path></svg>