<?xml version="1.0" standalone="no"?><!DOCTYPE svg PUBLIC "-//W3C//DTD SVG 1.1//EN" "http://www.w3.org/Graphics/SVG/1.1/DTD/svg11.dtd"><svg t="1541051908051" class="icon" style="" viewBox="0 0 1365 1024" version="1.1" xmlns="http://www.w3.org/2000/svg" p-id="32840" xmlns:xlink="http://www.w3.org/1999/xlink" width="42.65625" height="32"><defs><style type="text/css"></style></defs><path d="M1365.111158 887.148142c0 19.111481-3.242126 36.857857-9.726379 53.409765-12.456591 32.591901-37.711048 58.870188-69.961673 72.862523-16.039993 6.996167-33.615731 10.57957-52.727213 10.57957H141.293794c-19.111481 0-37.028495-3.412765-54.092318-10.57957-16.722546-6.825529-32.079987-16.722546-45.048492-29.179137-12.968505-12.456591-23.377437-27.302116-30.885519-43.512748-7.508082-16.722546-11.432761-34.980837-11.262123-53.409765V136.851858c0-38.052325 13.309782-70.473588 39.758707-96.922513C66.383612 13.309782 98.804875 0 136.8572 0h1091.4021c38.052325 0 70.473588 13.309782 96.922512 39.929345C1351.801376 66.37827 1365.111158 98.799533 1365.111158 136.851858v204.424596H1023.834704c-38.052325 0-70.473588 12.968505-96.922513 39.076154-26.619563 26.107649-39.758707 58.187635-39.758707 96.23996 1.023829 26.107649 6.484253 49.143809 16.551908 69.27912 8.019997 17.063823 21.329778 32.591901 39.758707 46.584236 18.599567 13.992335 45.389768 20.988502 80.541243 20.988502h341.276454l-0.170638 273.703716zM956.261966 476.592568c0-19.111481 6.484253-35.151475 19.623396-48.11998 12.627229-12.797867 30.032328-19.964673 48.11998-19.623396 19.111481 0 34.980837 6.484253 48.11998 19.623396 13.139143 12.968505 19.623396 29.008499 19.623396 48.11998s-6.484253 35.322113-19.623396 48.973171c-12.456591 13.309782-29.86169 20.647225-48.11998 20.305949-19.111481 0-35.151475-6.825529-48.11998-20.305949-12.968505-13.139143-19.964673-30.714881-19.623396-48.973171z m0 0" fill="#30A1DC" p-id="32841"></path></svg>