<?xml version="1.0" standalone="no"?><!DOCTYPE svg PUBLIC "-//W3C//DTD SVG 1.1//EN" "http://www.w3.org/Graphics/SVG/1.1/DTD/svg11.dtd"><svg t="1541051666077" class="icon" style="" viewBox="0 0 1024 1024" version="1.1" xmlns="http://www.w3.org/2000/svg" p-id="17090" xmlns:xlink="http://www.w3.org/1999/xlink" width="32" height="32"><defs><style type="text/css"></style></defs><path d="M0 0h1024v1024H0z" fill="#1fc101" p-id="17091"></path><path d="M558.203909 605.455443c-0.65025-0.21675-1.806251-0.4335-3.034502-0.7225-5.418754-1.445001-10.909758-2.962252-15.895012-4.696254h-0.07225c-31.356523-10.982008-50.791787-29.116771-50.791787-47.251534 0-7.369505 2.962252-14.377761 9.537007-21.819516 2.601002-2.384252 4.985254-4.985254 7.441755-7.658506 21.458266-24.492768 33.813025-59.389543 33.813025-95.73132 0-71.527552-46.529034-129.688845-103.606576-129.688845s-103.606576 58.161293-103.606576 129.688845c0 40.67678 14.666761 77.957807 40.17103 102.450575 0 0 0.07225 0.07225 0.07225 0.1445 5.274254 5.129754 11.560008 13.36626 11.560008 23.481268 0 17.484513-19.579764 34.896776-51.153037 45.517533-0.1445 0-0.289 0.07225-0.433501 0.07225-4.551753 1.156001-8.525506 2.312002-14.52226 4.190503-70.443802 22.614267-112.493332 63.580047-112.493333 109.53108 0 7.297255 5.852254 13.14951 13.14951 13.14951h432.416567c7.297255 0 13.14951-5.852254 13.149509-13.14951 0-43.928032-39.376279-84.099062-105.701827-107.508079z" fill="#FFFFFF" p-id="17092"></path><path d="M745.548296 566.151415c-0.50575-0.1445-1.228251-0.289-2.239752-0.505751-3.757003-0.939251-7.586256-2.023001-10.837508-3.179002l-0.1445-0.1445c-21.747266-7.586256-35.258026-20.157765-35.258025-32.801524 0-5.057504 2.239752-9.898257 6.647004-15.100261 1.878501-1.589501 3.468003-3.468003 5.202004-5.346504 14.955761-16.834262 23.481267-41.11028 23.481267-66.325549 0-49.635786-32.295774-89.951316-71.961052-89.951316-39.520779 0-71.816553 40.31553-71.816553 89.951316 0 28.177521 10.259508 54.04304 27.888521 71.021802 3.757003 3.612503 8.019756 9.320257 8.019755 16.400762 0 12.138009-13.58301 24.276018-35.474776 31.501023-0.1445 0-0.1445 0.1445-0.289 0.1445-3.179002 0.794751-5.852254 1.589501-10.115007 2.817753-4.696253 1.589501-9.320257 3.179002-13.58301 4.913003 5.202004 3.323502 11.343258 6.141254 18.134763 8.525506 3.973753 1.445001 8.164256 2.528752 12.571509 3.612503 0.939251 0.289 1.734001 0.50575 2.384252 0.650251 41.11028 14.522261 69.143301 37.353277 79.041558 63.291046 0.939251 2.528752 3.251252 4.262753 5.996754 4.262753h126.509843c5.129754 0 9.175757-4.262753 9.103507-9.320257-0.07225-30.417272-27.31052-58.161293-73.261554-74.417554z" fill="#FFFFFF" p-id="17093"></path></svg>