<?xml version="1.0" standalone="no"?><!DOCTYPE svg PUBLIC "-//W3C//DTD SVG 1.1//EN" "http://www.w3.org/Graphics/SVG/1.1/DTD/svg11.dtd"><svg t="1541051728900" class="icon" style="" viewBox="0 0 1024 1024" version="1.1" xmlns="http://www.w3.org/2000/svg" p-id="20111" xmlns:xlink="http://www.w3.org/1999/xlink" width="32" height="32"><defs><style type="text/css"></style></defs><path d="M489.569524 334.019048h211.626666c30.72 0 55.588571-24.868571 55.588572-55.588572v-22.430476c0-30.72-24.868571-55.588571-55.588572-55.588571h-211.626666C489.569524 90.209524 399.36 0 289.158095 0H200.411429C90.209524 0 0 90.209524 0 200.411429l27.794286 315.001904v1.950477l1.462857 8.777142c0 0.487619 0.487619 0.975238 0.487619 1.462858 0.487619 1.950476 1.462857 3.900952 1.950476 6.339047 0 0.487619 0.487619 0.975238 0.487619 1.950476 0.975238 2.438095 1.950476 4.87619 3.413333 6.826667v0.487619c0.975238 1.950476 1.950476 3.413333 3.413334 5.36381 0 0.487619 0.487619 0.487619 0.487619 0.975238 0.975238 1.462857 1.950476 2.925714 3.413333 4.388571l0.975238 0.975238c0.975238 1.462857 2.438095 2.438095 3.413334 3.900953l0.975238 0.975238c0.975238 0.975238 2.438095 2.438095 3.900952 3.413333 0.487619 0.487619 0.975238 0.487619 1.462857 0.975238 1.462857 0.975238 2.438095 1.950476 3.900953 2.925714 0.487619 0.487619 0.975238 0.487619 1.462857 0.975238 1.462857 0.975238 2.438095 1.462857 3.900952 2.438096 0.487619 0.487619 0.975238 0.487619 1.462857 0.975238 1.462857 0.975238 2.925714 1.462857 4.388572 1.950476 0.487619 0.487619 0.975238 0.487619 1.950476 0.975238l4.388571 1.462857c0.487619 0 0.975238 0.487619 1.950477 0.487619 1.462857 0.487619 2.925714 0.975238 4.87619 0.975238 0.487619 0 0.975238 0.487619 1.950476 0.487619 1.950476 0.487619 3.413333 0.487619 5.36381 0.975239h1.462857c2.438095 0 4.388571 0.487619 6.826667 0.487619 38.521905 0 69.729524-31.207619 69.729523-69.729524V367.177143c0-18.529524 15.11619-33.158095 33.158096-33.158095h289.158095zM996.205714 509.074286v-1.950476l-1.462857-8.777143c0-0.487619-0.487619-0.975238-0.487619-1.462857-0.487619-1.950476-1.462857-3.900952-1.950476-6.339048 0-0.487619-0.487619-0.975238-0.487619-1.950476-0.975238-2.438095-1.950476-4.87619-3.413333-6.826667v-0.487619c-0.975238-1.950476-1.950476-3.413333-3.413334-5.36381 0-0.487619-0.487619-0.487619-0.487619-0.975238-0.975238-1.462857-1.950476-2.925714-3.413333-4.388571l-0.975238-0.975238c-0.975238-1.462857-2.438095-2.438095-3.413334-3.900953l-0.975238-0.975238c-0.975238-0.975238-2.438095-2.438095-3.900952-3.413333-0.487619-0.487619-0.975238-0.487619-1.462857-0.975238-1.462857-0.975238-2.438095-1.950476-3.900953-2.925714-0.487619-0.487619-0.975238-0.487619-1.462857-0.975238-1.462857-0.975238-2.438095-1.462857-3.900952-2.438096-0.487619-0.487619-0.975238-0.487619-1.462857-0.975238-1.462857-0.975238-2.925714-1.462857-4.388572-1.950476-0.487619-0.487619-0.975238-0.487619-1.950476-0.975238l-4.388571-1.462857c-0.487619 0-0.975238-0.487619-1.950477-0.487619-1.462857-0.487619-2.925714-0.975238-4.87619-0.975238-0.487619 0-0.975238-0.487619-1.950476-0.487619-1.950476-0.487619-3.413333-0.487619-5.36381-0.975238h-1.462857c-2.438095 0-4.388571-0.487619-6.826667-0.48762-38.521905 0-69.729524 31.207619-69.729523 69.729524v141.897143c0 18.529524-15.11619 33.158095-33.158096 33.158095H322.80381c-30.72 0-55.588571 24.868571-55.588572 55.588572v22.430476c0 30.72 24.868571 55.588571 55.588572 55.588571h211.626666c0 110.201905 90.209524 200.411429 200.411429 200.411429H824.07619c110.201905 0 200.411429-90.209524 200.411429-200.411429l-28.281905-314.514285z" fill="#0071BC" p-id="20112"></path></svg>