<?xml version="1.0" standalone="no"?><!DOCTYPE svg PUBLIC "-//W3C//DTD SVG 1.1//EN" "http://www.w3.org/Graphics/SVG/1.1/DTD/svg11.dtd"><svg t="1541052024077" class="icon" style="" viewBox="0 0 1024 1024" version="1.1" xmlns="http://www.w3.org/2000/svg" p-id="35859" xmlns:xlink="http://www.w3.org/1999/xlink" width="32" height="32"><defs><style type="text/css"></style></defs><path d="M1014.601956 658.682311c1.683911 8.419556 0 20.252444-1.683912 32.039822-1.661156 11.810133-6.712889 25.281422-11.764622 36.522667-5.006222 13.494044-11.741867 23.620267-18.477511 33.723733a62.805333 62.805333 0 0 1-25.1904 21.9136 45.806933 45.806933 0 0 1-23.506489 6.7584c-6.735644 0-13.425778-1.683911-21.845333-5.074489-6.712889-1.683911-16.7936-5.051733-26.874311-6.735644-11.764622-1.683911-21.845333-1.683911-33.609956-1.683911-11.741867 1.683911-23.506489 3.367822-33.5872 6.7584-11.764622 3.367822-21.845333 10.103467-30.242133 18.523022-18.477511 18.545778-28.558222 38.229333-31.903289 61.826845-3.367822 23.620267 0 44.964978 8.3968 66.901333 6.712889 15.1552 5.028978 28.649244-3.367822 43.258311a136.533333 136.533333 0 0 1-21.845334 18.545778 190.919111 190.919111 0 0 1-31.903288 16.839111c-11.764622 5.074489-23.529244 8.442311-35.271112 11.832889C660.138667 1024 648.3968 1024 638.293333 1024c-6.712889 0-13.425778-3.367822-18.477511-8.419556-5.028978-5.074489-10.080711-10.126222-11.764622-16.884622h1.683911c-8.3968-23.597511-21.845333-41.5744-39.753955-58.436266-18.477511-16.861867-41.415111-25.304178-66.628267-25.304178-25.1904 0-46.466844 6.7584-66.628267 23.620266-20.161422 16.839111-35.271111 35.407644-43.121778 56.752356-3.367822 8.419556-10.080711 15.177956-16.7936 18.545778a53.475556 53.475556 0 0 1-23.529244 5.074489 99.214222 99.214222 0 0 1-35.271111-6.7584c-13.425778-3.367822-25.1904-8.419556-38.070045-15.177956-13.425778-5.051733-23.529244-11.787378-33.609955-20.229689a100.397511 100.397511 0 0 1-23.506489-21.9136 34.087822 34.087822 0 0 1-5.051733-18.545778c0-6.7584 3.367822-16.861867 8.419555-28.672 8.374044-16.839111 11.741867-35.407644 10.057956-56.752355-1.661156-21.9136-10.080711-41.597156-26.851556-60.142933a64.944356 64.944356 0 0 0-36.408889-21.9136 189.144178 189.144178 0 0 0-41.437866-5.051734c-15.132444 0-31.926044 3.367822-46.4896 8.419556-10.057956 3.367822-20.138667 1.683911-30.219378-3.367822-8.419556-3.367822-15.132444-10.103467-21.845333-20.252445a174.421333 174.421333 0 0 1-18.477512-35.384889c-5.051733-13.494044-8.419556-26.988089-11.764622-39.913244-3.345067-13.471289-3.345067-25.281422-1.661155-33.723734 1.661156-16.839111 10.057956-26.965333 21.845333-30.333155 21.822578-8.419556 41.415111-21.936356 59.892622-41.597156 18.477511-20.252444 26.874311-41.597156 26.874311-66.901333 0-25.258667-8.3968-48.310044-25.1904-66.855822s-36.408889-33.723733-58.254222-41.597156c-6.690133-1.683911-11.741867-6.735644-16.7936-16.839111a47.763911 47.763911 0 0 1-6.712889-25.304178c0-10.126222 1.683911-20.252444 5.051734-32.039822 3.345067-11.810133 6.712889-23.597511 11.764622-33.723733 5.028978-10.103467 10.057956-20.229689 16.7936-30.333156 6.712889-8.419556 13.425778-15.177956 20.161422-20.252444 6.712889-3.367822 11.741867-5.051733 16.7936-3.367822 5.028978 0 11.741867 1.683911 18.477511 5.051733a157.013333 157.013333 0 0 0 68.312178 10.126222c23.506489-3.367822 44.782933-13.494044 63.260444-30.355911 8.419556-8.419556 15.132444-20.229689 20.161423-32.017067 5.051733-13.494044 6.735644-25.304178 8.419555-38.229333a113.618489 113.618489 0 0 0 0-33.723733c-1.706667-10.103467-1.706667-18.545778-1.706667-21.9136-1.661156-5.051733-3.345067-10.126222-3.345066-15.177956a21.208178 21.208178 0 0 1 1.683911-15.177955c5.028978-10.103467 11.764622-18.545778 23.506489-26.965334 11.764622-6.7584 23.529244-13.494044 36.408889-18.545778A192.7168 192.7168 0 0 1 346.567111 3.367822C358.354489 1.683911 368.4352 0 376.832 0c10.080711 0 16.7936 3.367822 21.845333 10.103467 5.006222 6.7584 8.3968 13.494044 11.741867 20.252444 8.419556 20.229689 20.161422 36.522667 38.070044 53.384533 18.477511 15.177956 39.776711 23.597511 63.2832 23.597512 25.1904 0 48.150756-6.735644 68.312178-20.229689 20.161422-13.494044 33.5872-32.039822 41.437867-53.384534 3.367822-5.051733 8.419556-11.810133 13.425778-18.545777 10.103467-10.126222 15.132444-13.494044 21.845333-13.494045 10.080711 0 21.845333 1.683911 33.609956 5.051733 11.741867 3.367822 23.506489 6.7584 35.271111 13.494045 11.764622 5.051733 21.845333 11.810133 31.903289 20.252444 10.103467 8.419556 16.816356 16.839111 23.529244 26.965334 3.367822 6.735644 5.028978 11.787378 3.367822 18.545777a78.506667 78.506667 0 0 1-5.051733 15.177956c-10.080711 21.9136-13.425778 43.258311-10.080711 66.878578 3.367822 23.597511 13.425778 43.258311 30.264889 61.804089 16.770844 18.545778 38.047289 28.672 63.260444 30.355911 25.1904 1.683911 49.834667-1.683911 71.68-11.810134 5.006222-3.367822 13.425778-5.051733 21.822578-3.367822 8.419556 1.683911 15.109689 5.074489 21.845333 10.126222 10.080711 10.126222 20.161422 26.988089 28.558222 46.648889 8.3968 21.9136 13.425778 41.597156 16.7936 63.488 1.683911 11.832889-1.683911 21.936356-6.735644 28.672-5.006222 6.7584-11.741867 11.810133-16.7936 13.494045-23.506489 8.419556-41.415111 21.9136-58.231467 41.597155-16.7936 20.229689-25.1904 41.5744-25.1904 68.562489 0 25.281422 6.712889 46.648889 18.477511 65.194667 13.425778 18.545778 30.242133 32.039822 51.518578 39.890489 5.028978 3.390578 10.080711 6.7584 13.425778 8.419555 6.144 9.0112 11.195733 17.453511 14.563556 27.556978z m-509.474134 89.929956c33.655467 0 63.374222-5.051733 93.661867-16.884623 30.264889-11.810133 54.954667-28.672 76.822755-50.062222 21.868089-21.936356 39.822222-46.671644 51.586845-75.3664a216.951467 216.951467 0 0 0 20.184178-92.251022c0-33.769244-5.051733-63.579022-16.839111-92.273778a242.938311 242.938311 0 0 0-49.880178-77.050311c-21.868089-21.936356-46.557867-39.936-75.1616-51.768889a215.108267 215.108267 0 0 0-91.9552-20.252444c-33.655467 0-63.374222 5.074489-93.661867 16.884622a242.005333 242.005333 0 0 0-76.822755 50.062222c-21.845333 21.936356-39.822222 46.6944-51.586845 75.389156-11.764622 26.988089-18.500267 56.797867-20.184178 90.567111 0 33.746489 5.051733 63.556267 16.839111 92.251022a242.983822 242.983822 0 0 0 49.902934 77.073067c21.845333 21.936356 46.535111 39.936 75.138844 53.430044a211.512889 211.512889 0 0 0 91.9552 20.252445z" fill="#30A1DC" p-id="35860"></path></svg>