<?xml version="1.0" standalone="no"?><!DOCTYPE svg PUBLIC "-//W3C//DTD SVG 1.1//EN" "http://www.w3.org/Graphics/SVG/1.1/DTD/svg11.dtd"><svg t="1541054170015" class="icon" style="" viewBox="0 0 1024 1024" version="1.1" xmlns="http://www.w3.org/2000/svg" p-id="37598" xmlns:xlink="http://www.w3.org/1999/xlink" width="128" height="128"><defs><style type="text/css"></style></defs><path d="M0.141983 511.937503C0.073991 794.672986 229.219017 1023.929999 511.954501 1023.99999c282.735484 0.064992 511.992496-229.077034 512.062487-511.812518V511.937503c0-282.735484-229.202019-511.937503-511.937503-511.937503s-511.937503 229.202019-511.937502 511.937503z" fill="#E9E9E9" p-id="37599"></path><path d="M749.66848 847.444544c-23.944077-9.326861-52.09664-17.227897-83.321828-23.34915h-0.004999c-17.477866-3.427582-35.913616-6.30523-55.158266-8.536957-28.172561 7.571076-62.309393 12.010534-99.103902 12.010533-36.836503 0-71.007331-4.448457-99.19689-12.03953-20.735469 2.401707-40.524053 5.554322-59.196773 9.326861 1.655798 0.56993 3.35459 1.045872 5.039385 1.55681 0.560932 0.16498 1.120863 0.345958 1.676795 0.524936a93.250616 93.250616 0 0 0-1.676795-0.524936c-1.684794-0.510938-3.383587-0.98588-5.039385-1.55681-29.466403 5.965272-56.11415 13.520349-78.955361 22.378269-0.444946-1.285843-55.424234 29.353417-87.021377 60.85857C275.996306 980.430309 388.878526 1023.875005 511.923504 1023.875005c123.187961 0 236.193166-43.534685 324.528382-116.032834-31.574145-31.314177-86.317462-61.738463-86.783406-60.397627z" fill="#1296DB" p-id="37600"></path><path d="M736.698064 444.010795c-6.500206-2.4577-13.716326-1.278844-20.842456 2.676673 0.630923-42.162853-5.608315-80.321194-18.054796-110.599498H326.038197C313.105776 367.565128 306.827542 407.534248 308.054393 451.696857c-7.144128-3.987513-14.384244-5.181367-20.909448-2.716669-18.496742 6.987147-24.211044 40.21909-12.765441 74.225939 11.444603 33.99685 35.71164 55.894176 54.203383 48.929027 16.644968 54.003407 41.352952 100.540726 69.725487 135.347476 4.983392 6.115253 10.07777 11.87455 15.262137 17.243895v90.721925c-0.229972 0.029996-0.459944 0.059993-0.689915 0.07999 28.189559 7.591073 62.359387 12.03953 99.198889 12.03953 36.794508 0 70.931341-4.438458 99.103902-12.010533-0.305963-0.033996-0.604926-0.073991-0.910889-0.108987v-90.68193c5.219363-5.399341 10.348737-11.198633 15.362124-17.352881 28.312544-34.742759 52.972533-81.17609 69.599504-135.038515 0.495939-1.601804 44.020626 0 54.22838-54.14239 11.449602-34.004849 5.7353-67.235792-12.764442-74.221939z" fill="#EED5A1" p-id="37601"></path><path d="M697.801812 337.838757s-2.240726 47.307225 18.054796 115.366916c0 0 88.671175-257.661545-77.98148-257.661545 0 0-431.578313-150.059681-329.816736 262.886907 0 0 2.853652 11.501596 7.913034 20.88645C384.34008 378.187831 610.813432 410.946832 697.801812 337.838757z" fill="#5C4948" p-id="37602"></path><path d="M321.011811 933.983979h92.541702v15.822069h-92.541702v-15.822069zM511.595544 827.558972s21.199412 35.697642 73.906978 46.140367c0 0 27.131688-36.062597 25.194924-58.150901l-99.101902 12.010534zM511.54555 827.56897s-21.196412 35.698642-73.900978 46.146367c0 0-27.134687-36.063597-25.202923-58.1569l99.103901 12.010533z" fill="#B9C9C2" p-id="37603"></path><path d="M502.273682 853.959749c-0.007999 5.148371 4.158492 9.326861 9.305864 9.33686 5.148371 0.009999 9.331861-4.152493 9.34186-9.302865v-0.033995c0-5.145372-4.17349-9.322862-9.324862-9.322862-5.149371 0-9.322862 4.17849-9.322862 9.322862zM502.225688 889.728382c0 5.148371 4.17349 9.321862 9.319862 9.321862 5.151371 0 9.324862-4.17349 9.324862-9.321862 0-5.144372-4.17349-9.316863-9.324862-9.316863-5.146372 0-9.319862 4.172491-9.319862 9.316863zM502.225688 926.126938a9.323862 9.323862 0 0 0 18.644724 0c0-5.144372-4.17349-9.316863-9.324862-9.316862-5.146372 0-9.319862 4.17349-9.319862 9.316862z" fill="#56A57E" p-id="37604"></path></svg>