<?xml version="1.0" standalone="no"?><!DOCTYPE svg PUBLIC "-//W3C//DTD SVG 1.1//EN" "http://www.w3.org/Graphics/SVG/1.1/DTD/svg11.dtd"><svg t="1541051871865" class="icon" style="" viewBox="0 0 1024 1024" version="1.1" xmlns="http://www.w3.org/2000/svg" p-id="30717" xmlns:xlink="http://www.w3.org/1999/xlink" width="32" height="32"><defs><style type="text/css"></style></defs><path d="M712.88 62C850.24999971 62 962.02999971 167.18000029 962.02999971 297.46999971c0 40.5-11.36999971 80.1-32.22 115.80000029-31.25999971 52.11-81.45 90.69000029-142.11 109.01999971-16.08000029 4.83000029-28.41000029 6.77999971-39.78 6.78000058-26.52000029 0-47.36999971-21.24-47.36999971-48.27000058 0-27 20.85000029-48.24 47.40000029-48.24 1.86000029 0 5.67 0 10.40999942-1.91999971 40.70999971-11.58000029 72.92999971-35.70000029 90.93000058-67.56000029 12.30000029-20.27999971 18-42.45000029 18-65.61 0-76.25999971-69.14999971-138.96-153.48000058-138.96a168.59999971 168.59999971 0 0 0-83.36999971 22.20000029c-44.52000029 26.03999971-71.03999971 69.45000029-71.03999971 116.75999971v404.31000058c0 82.05000029-44.52000029 157.32-118.41000029 199.76999942a256.86 256.86 0 0 1-129.80999971 34.74C173.80999971 936.28999971 62.02999971 831.11000029 62.02999971 700.82c0-40.5 11.36999971-80.1 32.22-115.80000029 31.25999971-52.11 81.45-90.69000029 142.11-109.04999942 17.03999971-4.79999971 28.41000029-6.75 39.78-6.75 26.52000029 0 47.36999971 21.24 47.37000058 48.26999971 0 27-20.85000029 48.24-47.40000029 48.24-1.86000029 0-5.67 0-10.41000029 1.91999971-40.70999971 12.53999971-72.92999971 36.69000029-90.92999971 67.56000029-12.30000029 20.25-18 42.45000029-18 65.61 0 76.23 69.14999971 138.96 154.41000029 138.96a168.59999971 168.59999971 0 0 0 83.39999942-22.20000029c44.48999971-26.03999971 71.03999971-69.48 71.04000058-116.75999971V297.50000029c0-82.05000029 44.52000029-157.32 118.40999942-199.77000029C622.88 73.58000029 667.40000029 62 712.88 62z" fill="#7B87CF" p-id="30718"></path></svg>